<svg viewBox="0 0 768 768" fill="none" stroke-linecap="square" stroke-miterlimit="10" xmlns="http://www.w3.org/2000/svg"><clipPath id="a"><path d="M0 0h768v768H0V0z"/></clipPath><g clip-path="url(#a)"><path fill="none" d="M0 0h768v768H0z"/><path fill="#e06666" d="M739.191 249.402v269.17a55.384 55.384 0 0 1-55.383 55.383H617.49a.003.003 0 0 1-.004-.003l.004-379.934c0-.002.001-.003.003-.003l66.314.003c30.587 0 55.383 24.796 55.383 55.384z" fill-rule="evenodd"/><path stroke="#000" stroke-linejoin="round" stroke-linecap="butt" d="M739.191 249.402v269.17a55.384 55.384 0 0 1-55.383 55.383H617.49a.003.003 0 0 1-.004-.003l.004-379.934c0-.002.001-.003.003-.003l66.314.003c30.587 0 55.383 24.796 55.383 55.384z"/><path fill="#000" d="M150.522 193.814h467.024v380.378H150.522z" fill-rule="evenodd"/><path stroke="#000" stroke-linejoin="round" stroke-linecap="butt" d="M150.522 193.814h467.024v380.378H150.522z"/><path fill="#3c78d8" d="M28.809 518.549v-269.17a55.384 55.384 0 0 1 55.383-55.384h66.317c.002 0 .004.002.004.004l-.004 379.933a.003.003 0 0 1-.003.003l-66.314-.003c-30.587 0-55.383-24.796-55.383-55.383z" fill-rule="evenodd"/><path stroke="#000" stroke-linejoin="round" stroke-linecap="butt" d="M28.809 518.549v-269.17a55.384 55.384 0 0 1 55.383-55.384h66.317c.002 0 .004.002.004.004l-.004 379.933a.003.003 0 0 1-.003.003l-66.314-.003c-30.587 0-55.383-24.796-55.383-55.383z"/><path fill="#666" d="M62.835 278.38c0-15.272 12.38-27.653 27.653-27.653a27.654 27.654 0 0 1 27.654 27.653c0 15.273-12.38 27.654-27.654 27.654-15.272 0-27.653-12.381-27.653-27.654z" fill-rule="evenodd"/><path stroke="#000" stroke-linejoin="round" stroke-linecap="butt" d="M62.835 278.38c0-15.272 12.38-27.653 27.653-27.653a27.654 27.654 0 0 1 27.654 27.653c0 15.273-12.38 27.654-27.654 27.654-15.272 0-27.653-12.381-27.653-27.654z"/><path fill="#666" d="M650.687 379.398c0-15.273 12.38-27.654 27.653-27.654a27.653 27.653 0 0 1 27.654 27.654c0 15.272-12.381 27.653-27.654 27.653-15.272 0-27.653-12.38-27.653-27.653z" fill-rule="evenodd"/><path stroke="#000" stroke-linejoin="round" stroke-linecap="butt" d="M650.687 379.398c0-15.273 12.38-27.654 27.653-27.654a27.653 27.653 0 0 1 27.654 27.654c0 15.272-12.381 27.653-27.654 27.653-15.272 0-27.653-12.38-27.653-27.653z"/><path fill="#666" d="M80.516 365.565a9.213 9.213 0 0 1 18.425 0 9.213 9.213 0 0 1-18.425 0z" fill-rule="evenodd"/><path stroke="#000" stroke-linejoin="round" stroke-linecap="butt" d="M80.516 365.565a9.213 9.213 0 0 1 18.425 0 9.213 9.213 0 0 1-18.425 0z"/><path fill="#666" d="M80.516 402.429a9.213 9.213 0 0 1 18.425 0 9.213 9.213 0 1 1-18.425 0z" fill-rule="evenodd"/><path stroke="#000" stroke-linejoin="round" stroke-linecap="butt" d="M80.516 402.429a9.213 9.213 0 0 1 18.425 0 9.213 9.213 0 1 1-18.425 0z"/><path fill="#666" d="M62.084 383.997a9.213 9.213 0 0 1 18.425 0 9.213 9.213 0 0 1-18.425 0z" fill-rule="evenodd"/><path stroke="#000" stroke-linejoin="round" stroke-linecap="butt" d="M62.084 383.997a9.213 9.213 0 0 1 18.425 0 9.213 9.213 0 0 1-18.425 0z"/><path fill="#666" d="M98.948 383.997a9.213 9.213 0 1 1 18.425 0 9.213 9.213 0 0 1-18.425 0z" fill-rule="evenodd"/><path stroke="#000" stroke-linejoin="round" stroke-linecap="butt" d="M98.948 383.997a9.213 9.213 0 1 1 18.425 0 9.213 9.213 0 0 1-18.425 0z"/><path fill="#666" d="M668.368 259.94a9.212 9.212 0 1 1 18.425 0 9.213 9.213 0 1 1-18.425 0z" fill-rule="evenodd"/><path stroke="#000" stroke-linejoin="round" stroke-linecap="butt" d="M668.368 259.94a9.212 9.212 0 1 1 18.425 0 9.213 9.213 0 1 1-18.425 0z"/><path fill="#666" d="M668.368 296.803a9.213 9.213 0 0 1 9.212-9.212 9.212 9.212 0 0 1 9.213 9.212 9.213 9.213 0 0 1-18.425 0z" fill-rule="evenodd"/><path stroke="#000" stroke-linejoin="round" stroke-linecap="butt" d="M668.368 296.803a9.213 9.213 0 0 1 9.212-9.212 9.212 9.212 0 0 1 9.213 9.212 9.213 9.213 0 0 1-18.425 0z"/><path fill="#666" d="M649.936 278.371a9.213 9.213 0 0 1 18.425 0 9.213 9.213 0 1 1-18.425 0z" fill-rule="evenodd"/><path stroke="#000" stroke-linejoin="round" stroke-linecap="butt" d="M649.936 278.371a9.213 9.213 0 0 1 18.425 0 9.213 9.213 0 1 1-18.425 0z"/><path fill="#666" d="M686.8 278.371a9.212 9.212 0 1 1 18.425 0 9.213 9.213 0 1 1-18.425 0z" fill-rule="evenodd"/><path stroke="#000" stroke-linejoin="round" stroke-linecap="butt" d="M686.8 278.371a9.212 9.212 0 1 1 18.425 0 9.213 9.213 0 1 1-18.425 0z"/><path fill="#666" d="M631.627 472.806a9.213 9.213 0 0 1 18.425 0 9.213 9.213 0 1 1-18.425 0z" fill-rule="evenodd"/><path stroke="#000" stroke-linejoin="round" stroke-linecap="butt" d="M631.627 472.806a9.213 9.213 0 0 1 18.425 0 9.213 9.213 0 1 1-18.425 0z"/><path fill="#666" d="M118.007 463.593h18.426v18.426h-18.426z" fill-rule="evenodd"/><path stroke="#000" stroke-linejoin="round" stroke-linecap="butt" d="M118.007 463.593h18.426v18.426h-18.426z"/><path fill="#666" d="M630.685 212.54h6.909v-6.91h6.504v6.91h6.91v6.504h-6.91v6.91h-6.504v-6.91h-6.91z" fill-rule="evenodd"/><path stroke="#000" stroke-linejoin="round" stroke-linecap="butt" d="M630.685 212.54h6.909v-6.91h6.504v6.91h6.91v6.504h-6.91v6.91h-6.504v-6.91h-6.91z"/><path fill="#666" d="M117.065 212.54h20.322v6.504h-20.322z" fill-rule="evenodd"/><path stroke="#000" stroke-linejoin="round" stroke-linecap="butt" d="M117.065 212.54h20.322v6.504h-20.322z"/><path fill="#b6d7a8" d="M174.313 217.872h418.016v332.252H174.313z" fill-rule="evenodd"/><path stroke="#000" stroke-linejoin="round" stroke-linecap="butt" d="M174.313 217.872h418.016v332.252H174.313z"/><path fill="#434343" d="M377.228 601.834h12.19v110.803h-12.19z" fill-rule="evenodd"/><path stroke="#000" stroke-linejoin="round" stroke-linecap="butt" d="M377.228 601.834h12.19v110.803h-12.19z"/><path fill="#434343" d="M374.11 574.186h18.426v27.653h-18.425z" fill-rule="evenodd"/><path stroke="#434343" stroke-linejoin="round" stroke-linecap="butt" d="M374.11 574.186h18.426v27.653h-18.425z"/><path fill="#9bda7f" d="M174.314 217.874H592.33v332.252H174.314z" fill-rule="evenodd"/><path fill="#000" d="M324.746 345.315h-9.031v20.125h-11.328v-54.97h20.421q9.75 0 15.032 4.345 5.297 4.328 5.297 12.265 0 5.625-2.438 9.39-2.437 3.75-7.39 5.97l11.89 22.468v.532h-12.156l-10.297-20.125zm-9.031-9.172h9.14q4.266 0 6.61-2.172 2.343-2.172 2.343-5.985 0-3.89-2.218-6.109-2.203-2.234-6.782-2.234h-9.093v16.5zm81.177 10.984q-.64 8.875-6.546 13.969-5.907 5.094-15.579 5.094-10.562 0-16.625-7.11-6.062-7.125-6.062-19.547v-3.359q0-7.922 2.781-13.969 2.797-6.047 7.985-9.265 5.203-3.235 12.078-3.235 9.515 0 15.328 5.11 5.812 5.093 6.719 14.296h-11.329q-.406-5.312-2.968-7.703-2.547-2.406-7.75-2.406-5.672 0-8.485 4.063-2.812 4.046-2.89 12.578v4.156q0 8.906 2.703 13.031 2.703 4.11 8.515 4.11 5.25 0 7.829-2.391 2.593-2.406 2.968-7.422h11.328zm22.237-36.656 14.125 39.86 14.046-39.86h14.875v54.969h-11.359v-15.032l1.125-25.937-14.828 40.969h-7.781l-14.797-40.922 1.125 25.89v15.032h-11.328v-54.97h14.797zM244.105 439.927q-.64 8.875-6.547 13.969-5.906 5.094-15.578 5.094-10.562 0-16.625-7.11-6.062-7.125-6.062-19.547v-3.359q0-7.922 2.78-13.969 2.798-6.047 7.985-9.265 5.203-3.235 12.078-3.235 9.516 0 15.329 5.11 5.812 5.093 6.718 14.296h-11.328q-.406-5.312-2.969-7.703-2.546-2.406-7.75-2.406-5.671 0-8.484 4.063-2.812 4.046-2.89 12.578v4.156q0 8.906 2.703 13.031 2.703 4.11 8.515 4.11 5.25 0 7.828-2.391 2.594-2.406 2.969-7.422h11.328zm5.018-2.484q0-6.094 2.343-10.844 2.344-4.766 6.735-7.36 4.406-2.609 10.218-2.609 8.282 0 13.5 5.063 5.235 5.062 5.844 13.734l.063 2.797q0 9.406-5.25 15.094-5.235 5.672-14.078 5.672-8.829 0-14.11-5.657-5.265-5.672-5.265-15.406v-.484zm10.921.781q0 5.812 2.188 8.89 2.187 3.079 6.266 3.079 3.968 0 6.187-3.032 2.234-3.046 2.234-9.718 0-5.703-2.234-8.844-2.219-3.14-6.266-3.14-4 0-6.187 3.124-2.188 3.11-2.188 9.641zm44.552-20.844.344 4.719q4.375-5.469 11.734-5.469 6.5 0 9.672 3.813 3.172 3.812 3.25 11.406v26.39h-10.922v-26.124q0-3.485-1.515-5.047-1.5-1.563-5.016-1.563-4.594 0-6.906 3.922v28.813H294.33v-40.86h10.265zm43.308 0 .344 4.719q4.375-5.469 11.735-5.469 6.5 0 9.671 3.813 3.172 3.812 3.25 11.406v26.39h-10.921v-26.124q0-3.485-1.516-5.047-1.5-1.563-5.016-1.563-4.593 0-6.906 3.922v28.813H337.64v-40.86h10.265zm52.074 41.61q-8.984 0-14.64-5.5-5.64-5.516-5.64-14.688v-1.062q0-6.157 2.374-11 2.375-4.86 6.734-7.485 4.375-2.625 9.954-2.625 8.39 0 13.203 5.297 4.812 5.281 4.812 14.984v4.454H390.76q.53 4 3.187 6.421 2.672 2.407 6.75 2.407 6.297 0 9.844-4.563l5.36 6q-2.454 3.469-6.641 5.422-4.188 1.938-9.282 1.938zm-1.25-33.532q-3.25 0-5.265 2.203-2.016 2.188-2.594 6.266h15.187v-.875q-.078-3.625-1.968-5.61-1.89-1.984-5.36-1.984zm41.236 24.735q3.015 0 4.906-1.657 1.89-1.656 1.953-4.421h10.235q-.032 4.156-2.266 7.609-2.219 3.453-6.094 5.36-3.875 1.906-8.547 1.906-8.765 0-13.828-5.563-5.062-5.578-5.062-15.39v-.72q0-9.437 5.015-15.062 5.032-5.625 13.797-5.625 7.656 0 12.281 4.36 4.641 4.359 4.704 11.609h-10.235q-.062-3.172-1.953-5.156-1.89-1.985-4.984-1.985-3.813 0-5.766 2.782-1.937 2.78-1.937 9v1.14q0 6.297 1.921 9.063 1.922 2.75 5.86 2.75zm36.388-42.844v10.031h6.984v8.016h-6.984v20.39q0 2.266.875 3.25.875.97 3.328.97 1.812 0 3.203-.266v8.28q-3.203.97-6.61.97-11.484 0-11.702-11.594v-22h-5.97v-8.016h5.97V407.35h10.906zm31.878 51.64q-8.984 0-14.64-5.5-5.641-5.515-5.641-14.687v-1.062q0-6.157 2.375-11 2.375-4.86 6.734-7.485 4.375-2.625 9.953-2.625 8.391 0 13.204 5.297 4.812 5.281 4.812 14.984v4.454h-26.016q.532 4 3.188 6.421 2.672 2.407 6.75 2.407 6.297 0 9.844-4.563l5.36 6q-2.454 3.469-6.642 5.422-4.187 1.938-9.28 1.938zm-1.25-33.53q-3.25 0-5.265 2.202-2.016 2.188-2.594 6.266h15.187v-.875q-.078-3.625-1.968-5.61-1.891-1.984-5.36-1.984zm22.533 12.046q0-9.547 4.28-15.203 4.298-5.672 11.735-5.672 5.969 0 9.86 4.453V400.24h10.953v58h-9.86l-.53-4.344q-4.08 5.094-10.5 5.094-7.204 0-11.58-5.672-4.358-5.688-4.358-15.813zm10.921.797q0 5.734 2 8.797 2 3.062 5.813 3.062 5.062 0 7.14-4.265V429.77q-2.046-4.266-7.062-4.266-7.89 0-7.89 12.797z"/></g></svg>