<?xml version="1.0" encoding="UTF-8"?>
<!-- Created with Inkscape (http://www.inkscape.org/) -->
<svg id="SVGRoot" width="1060" height="720" version="1.1" viewBox="0 0 1060 720" xmlns="http://www.w3.org/2000/svg">
 <g transform="translate(503.5 349.89)">
  <rect x="-423.5" y="-269.89" width="240" height="380" ry="80" fill="#159dd7"/>
  <rect x="236.5" y="-269.89" width="240" height="380" ry="80" fill="#d7153a"/>
  <rect x="-283.5" y="-269.89" width="620" height="380" ry="0" fill="#111118"/>
  <rect x="-223.5" y="-229.89" width="500" height="300" ry="0" fill="#3bab3d"/>
  <g fill="#070710">
   <circle cx="-353.5" cy="-179.89" r="30"/>
   <circle cx="-383.5" cy="-79.893" r="15"/>
   <circle cx="-353.5" cy="-109.89" r="15"/>
   <circle cx="-323.5" cy="-79.893" r="15"/>
   <circle cx="-353.5" cy="-49.893" r="15"/>
   <circle transform="scale(-1)" cx="-406.5" cy="79.893" r="30"/>
   <circle transform="scale(-1)" cx="-436.5" cy="179.89" r="15"/>
   <circle transform="scale(-1)" cx="-406.5" cy="149.89" r="15"/>
   <circle transform="scale(-1)" cx="-376.5" cy="179.89" r="15"/>
   <circle transform="scale(-1)" cx="-406.5" cy="209.89" r="15"/>
   <rect x="-343.5" y="-9.8932" width="20" height="20" ry="0"/>
  </g>
  <rect x="372.49" y="-13.907" width="28.027" height="28.027" ry="14.014" fill="#363641"/>
  <rect x="376.5" y="-9.8932" width="20" height="20" ry="10" fill="#070710"/>
  <rect x="-423.5" y="-269.89" width="900" height="380" ry="80" fill="none" stroke="#070710" stroke-width="16"/>
  <rect x="-3.5" y="118.16" width="40" height="63.699" ry="4.1379" fill="#111118"/>
  <g fill="none">
   <path d="m16.5 170.11v216.62" stroke="#111118" stroke-width="20"/>
   <path d="m336.5-269.89v380" stroke="#070710" stroke-width="16"/>
   <path d="m-283.5-269.89v380" stroke="#070710" stroke-width="16"/>
  </g>
  <g fill="#cacadb" stroke-width="4.7919" aria-label="RCMCONNECTED">
   <path d="m-50.177-96.446q-0.79066 0-1.2938-0.50315t-0.50315-1.2938v-46.721q0-0.79066 0.50315-1.2938 0.50315-0.50314 1.2938-0.50314h19.551q9.2723 0 14.591 4.3127 5.3908 4.2408 5.3908 12.076 0 5.1033-2.5157 8.6254-2.4439 3.522-6.469 5.319l9.9192 17.682q0.21563 0.43127 0.21563 0.79066 0 0.57502-0.50315 1.0782-0.43127 0.43127-1.0782 0.43127h-9.4879q-1.3657 0-2.0126-0.6469-0.6469-0.71878-0.93441-1.2938l-8.1941-15.813h-7.4034v15.957q0 0.79066-0.50315 1.2938t-1.2938 0.50315zm11.069-27.889h8.3378q3.3783 0 5.0315-1.6532 1.7251-1.6532 1.7251-4.5283 0-2.8032-1.6532-4.5283-1.5813-1.7251-5.1033-1.7251h-8.3378z"/>
   <path d="m18.098-95.727q-6.8284 0-11.716-2.2282-4.8158-2.2282-7.5472-6.5409-2.6595-4.3127-2.947-10.71-0.071878-2.947-0.071878-6.3253 0-3.3783 0.071878-6.469 0.28751-6.2534 3.0189-10.566 2.7314-4.3846 7.6191-6.6128 4.8877-2.3001 11.572-2.3001 4.7439 0 8.7691 1.2219 4.0252 1.15 7.044 3.4502 3.0189 2.2282 4.6721 5.4627 1.7251 3.1626 1.797 7.1878 0.07188 0.6469-0.43127 1.0782-0.43127 0.43126-1.0782 0.43126h-9.7035q-0.93441 0-1.4376-0.35939-0.50315-0.43126-0.86254-1.5094-1.0063-3.8095-3.3064-5.1752-2.2282-1.4376-5.5346-1.4376-3.9533 0-6.2534 2.2282-2.3001 2.1563-2.5157 7.2597-0.21563 5.894 0 12.076 0.21563 5.1033 2.5157 7.3316 2.3001 2.1563 6.2534 2.1563 3.3064 0 5.6065-1.4376 2.3001-1.4376 3.2345-5.1752 0.28751-1.0782 0.79066-1.4376 0.57502-0.43127 1.5094-0.43127h9.7035q0.6469 0 1.0782 0.43127 0.50315 0.43127 0.43127 1.0782-0.07188 4.0252-1.797 7.2597-1.6532 3.1626-4.6721 5.4627-3.0189 2.2282-7.044 3.4501-4.0252 1.15-8.7691 1.15z"/>
   <path d="m49.725-96.446q-0.71878 0-1.2938-0.50315-0.50315-0.50315-0.50315-1.2938v-46.721q0-0.79066 0.50315-1.2938 0.57502-0.50314 1.2938-0.50314h7.7628q1.15 0 1.7251 0.6469 0.6469 0.57502 0.79066 0.93441l12.651 22.713 12.651-22.713q0.21563-0.35939 0.71878-0.93441 0.57502-0.6469 1.797-0.6469h7.6909q0.79066 0 1.2938 0.50314 0.57502 0.50315 0.57502 1.2938v46.721q0 0.79066-0.57502 1.2938-0.50315 0.50315-1.2938 0.50315h-8.5535q-0.79066 0-1.3657-0.50315-0.50315-0.50315-0.50315-1.2938v-26.954l-8.1222 15.022q-0.28751 0.6469-0.86254 1.15-0.57502 0.50314-1.5813 0.50314h-3.7377q-1.0063 0-1.5813-0.50314-0.57502-0.50315-0.93441-1.15l-8.1222-15.022v26.954q0 0.79066-0.50315 1.2938t-1.2938 0.50315z"/>
   <path d="m-173.46-5.5809q-6.8284 0-11.716-2.2282-4.8158-2.2282-7.5472-6.5409-2.6595-4.3127-2.947-10.71-0.0719-2.947-0.0719-6.3253t0.0719-6.469q0.28752-6.2534 3.0189-10.566 2.7314-4.3846 7.6191-6.6128 4.8877-2.3001 11.572-2.3001 4.7439 0 8.7691 1.2219 4.0252 1.15 7.044 3.4501 3.0189 2.2282 4.6721 5.4627 1.7251 3.1626 1.797 7.1878 0.0719 0.6469-0.43126 1.0782-0.43127 0.43127-1.0782 0.43127h-9.7035q-0.93442 0-1.4376-0.35939-0.50315-0.43127-0.86254-1.5094-1.0063-3.8095-3.3064-5.1752-2.2282-1.4376-5.5346-1.4376-3.9533 0-6.2534 2.2282-2.3001 2.1563-2.5157 7.2597-0.21563 5.894 0 12.076 0.21564 5.1033 2.5157 7.3316 2.3001 2.1563 6.2534 2.1563 3.3064 0 5.6065-1.4376 2.3001-1.4376 3.2345-5.1752 0.28751-1.0782 0.79066-1.4376 0.57502-0.43127 1.5094-0.43127h9.7035q0.6469 0 1.0782 0.43127 0.50314 0.43127 0.43126 1.0782-0.0719 4.0252-1.797 7.2597-1.6532 3.1626-4.6721 5.4627-3.0189 2.2282-7.044 3.4501-4.0252 1.15-8.7691 1.15z"/>
   <path d="m-123.07-5.5809q-6.6128 0-11.5-2.1563-4.8877-2.1563-7.6191-6.469-2.7314-4.3846-3.0189-10.925-0.0719-3.0908-0.0719-6.1815t0.0719-6.2534q0.28751-6.469 3.0189-10.854 2.8032-4.4564 7.691-6.6847 4.8877-2.2282 11.429-2.2282 6.469 0 11.357 2.2282 4.9596 2.2282 7.7628 6.6847 2.8032 4.3846 3.0189 10.854 0.14376 3.1626 0.14376 6.2534t-0.14376 6.1815q-0.28751 6.5409-3.0189 10.925-2.7314 4.3127-7.6191 6.469-4.8877 2.1563-11.5 2.1563zm0-10.35q3.8095 0 6.1815-2.3001 2.4438-2.3001 2.5876-7.3316 0.14375-3.1626 0.14375-5.9659t-0.14375-5.8221q-0.14376-3.3783-1.2938-5.4627-1.0782-2.1563-3.0189-3.1626-1.9407-1.0063-4.4564-1.0063-2.4438 0-4.3846 1.0063-1.9407 1.0063-3.0908 3.1626-1.15 2.0845-1.2938 5.4627-0.0719 3.0189-0.0719 5.8221t0.0719 5.9659q0.21564 5.0315 2.5876 7.3316 2.372 2.3001 6.1815 2.3001z"/>
   <path d="m-90.657-6.2996q-0.79066 0-1.2938-0.50315-0.50315-0.50315-0.50315-1.2938v-46.721q0-0.79066 0.50315-1.2938t1.2938-0.50315h7.6191q1.2219 0 1.7251 0.57502 0.57502 0.50315 0.71878 0.79066l17.538 27.673v-27.242q0-0.79066 0.50315-1.2938t1.2938-0.50315h8.6254q0.79066 0 1.2938 0.50315t0.50315 1.2938v46.721q0 0.71878-0.50315 1.2938-0.50315 0.50315-1.2938 0.50315h-7.6909q-1.15 0-1.7251-0.57502-0.50315-0.57502-0.6469-0.79066l-17.538-26.595v26.164q0 0.79066-0.50315 1.2938-0.50315 0.50315-1.2938 0.50315z"/>
   <path d="m-38.977-6.2996q-0.79066 0-1.2938-0.50315-0.50315-0.50315-0.50315-1.2938v-46.721q0-0.79066 0.50315-1.2938t1.2938-0.50315h7.6191q1.2219 0 1.7251 0.57502 0.57502 0.50315 0.71878 0.79066l17.538 27.673v-27.242q0-0.79066 0.50315-1.2938t1.2938-0.50315h8.6254q0.79066 0 1.2938 0.50315t0.50315 1.2938v46.721q0 0.71878-0.50315 1.2938-0.50315 0.50315-1.2938 0.50315h-7.6909q-1.15 0-1.7251-0.57502-0.50315-0.57502-0.6469-0.79066l-17.538-26.595v26.164q0 0.79066-0.50315 1.2938-0.50315 0.50315-1.2938 0.50315z"/>
   <path d="m12.703-6.2996q-0.79066 0-1.2938-0.50315-0.50315-0.50315-0.50315-1.2938v-46.721q0-0.79066 0.50315-1.2938t1.2938-0.50315h33.567q0.79066 0 1.2938 0.50315t0.50315 1.2938v6.7565q0 0.79066-0.50315 1.2938t-1.2938 0.50315h-22.929v9.7035h21.348q0.79066 0 1.2938 0.57502 0.50315 0.50315 0.50315 1.2938v6.2534q0 0.71878-0.50315 1.2938-0.50315 0.50315-1.2938 0.50315h-21.348v9.991h23.504q0.79066 0 1.2938 0.50315t0.50315 1.2938v6.7565q0 0.79066-0.50315 1.2938-0.50315 0.50315-1.2938 0.50315z"/>
   <path d="m77.052-5.5809q-6.8284 0-11.716-2.2282-4.8158-2.2282-7.5472-6.5409-2.6595-4.3127-2.947-10.71-0.07188-2.947-0.07188-6.3253t0.07188-6.469q0.28751-6.2534 3.0189-10.566 2.7314-4.3846 7.6191-6.6128 4.8877-2.3001 11.572-2.3001 4.7439 0 8.7691 1.2219 4.0252 1.15 7.044 3.4501 3.0189 2.2282 4.6721 5.4627 1.7251 3.1626 1.797 7.1878 0.07188 0.6469-0.43127 1.0782-0.43127 0.43127-1.0782 0.43127h-9.7035q-0.93441 0-1.4376-0.35939-0.50315-0.43127-0.86254-1.5094-1.0063-3.8095-3.3064-5.1752-2.2282-1.4376-5.5346-1.4376-3.9533 0-6.2534 2.2282-2.3001 2.1563-2.5157 7.2597-0.21563 5.894 0 12.076 0.21563 5.1033 2.5157 7.3316 2.3001 2.1563 6.2534 2.1563 3.3064 0 5.6065-1.4376t3.2345-5.1752q0.28751-1.0782 0.79066-1.4376 0.57502-0.43127 1.5094-0.43127h9.7035q0.6469 0 1.0782 0.43127 0.50315 0.43127 0.43127 1.0782-0.07188 4.0252-1.797 7.2597-1.6532 3.1626-4.6721 5.4627-3.0189 2.2282-7.044 3.4501-4.0252 1.15-8.7691 1.15z"/>
   <path d="m119.75-6.2996q-0.79066 0-1.2938-0.50315-0.50315-0.50315-0.50315-1.2938v-37.233h-12.794q-0.79066 0-1.2938-0.50315-0.50314-0.57502-0.50314-1.2938v-7.6909q0-0.79066 0.50314-1.2938 0.50315-0.50315 1.2938-0.50315h38.67q0.79066 0 1.2938 0.50315 0.50315 0.50315 0.50315 1.2938v7.6909q0 0.71878-0.50315 1.2938-0.50314 0.50315-1.2938 0.50315h-12.794v37.233q0 0.79066-0.50315 1.2938-0.50315 0.50315-1.2938 0.50315z"/>
   <path d="m153.96-6.2996q-0.79066 0-1.2938-0.50315-0.50315-0.50315-0.50315-1.2938v-46.721q0-0.79066 0.50315-1.2938 0.50314-0.50315 1.2938-0.50315h33.567q0.79066 0 1.2938 0.50315 0.50314 0.50315 0.50314 1.2938v6.7565q0 0.79066-0.50314 1.2938-0.50315 0.50315-1.2938 0.50315h-22.929v9.7035h21.348q0.79066 0 1.2938 0.57502 0.50315 0.50315 0.50315 1.2938v6.2534q0 0.71878-0.50315 1.2938-0.50314 0.50315-1.2938 0.50315h-21.348v9.991h23.504q0.79066 0 1.2938 0.50315 0.50315 0.50315 0.50315 1.2938v6.7565q0 0.79066-0.50315 1.2938-0.50314 0.50315-1.2938 0.50315z"/>
   <path d="m199.89-6.2996q-0.79066 0-1.2938-0.50315-0.50315-0.50315-0.50315-1.2938v-46.721q0-0.79066 0.50315-1.2938 0.50314-0.50315 1.2938-0.50315h18.688q7.044 0 12.004 2.3001 4.9596 2.2282 7.6191 6.6128 2.6595 4.3127 2.8751 10.71 0.0719 3.1626 0.0719 5.5346t-0.0719 5.4627q-0.28752 6.6847-2.8751 11.069-2.5157 4.3846-7.4034 6.5409-4.8158 2.0845-11.86 2.0845zm11.069-10.35h7.6191q3.0908 0 5.1033-0.93441 2.0845-1.0063 3.0908-3.0908 1.0782-2.0845 1.15-5.4627 0.14376-2.0845 0.14376-3.7377 0.0719-1.6532 0-3.3064 0-1.6532-0.14376-3.6658-0.14375-4.8877-2.5876-7.1159-2.372-2.3001-7.1159-2.3001h-7.2597z"/>
  </g>
 </g>
</svg>
