<svg viewBox="0 0 768 768" fill="none" stroke-linecap="square" stroke-miterlimit="10" xmlns="http://www.w3.org/2000/svg"><clipPath id="a"><path d="M0 0h768v768H0V0z"/></clipPath><g clip-path="url(#a)"><path fill="none" d="M0 0h768v768H0z"/><path fill="#e06666" d="M739.191 249.402v269.17a55.384 55.384 0 0 1-55.383 55.383H617.49a.003.003 0 0 1-.004-.003l.004-379.934c0-.002.001-.003.003-.003l66.314.003c30.587 0 55.383 24.796 55.383 55.384z" fill-rule="evenodd"/><path stroke="#000" stroke-linejoin="round" stroke-linecap="butt" d="M739.191 249.402v269.17a55.384 55.384 0 0 1-55.383 55.383H617.49a.003.003 0 0 1-.004-.003l.004-379.934c0-.002.001-.003.003-.003l66.314.003c30.587 0 55.383 24.796 55.383 55.384z"/><path fill="#000" d="M150.522 193.814h467.024v380.378H150.522z" fill-rule="evenodd"/><path stroke="#000" stroke-linejoin="round" stroke-linecap="butt" d="M150.522 193.814h467.024v380.378H150.522z"/><path fill="#3c78d8" d="M28.809 518.549v-269.17a55.384 55.384 0 0 1 55.383-55.384h66.317c.002 0 .004.002.004.004l-.004 379.933a.003.003 0 0 1-.003.003l-66.314-.003c-30.587 0-55.383-24.796-55.383-55.383z" fill-rule="evenodd"/><path stroke="#000" stroke-linejoin="round" stroke-linecap="butt" d="M28.809 518.549v-269.17a55.384 55.384 0 0 1 55.383-55.384h66.317c.002 0 .004.002.004.004l-.004 379.933a.003.003 0 0 1-.003.003l-66.314-.003c-30.587 0-55.383-24.796-55.383-55.383z"/><path fill="#666" d="M62.835 278.38c0-15.272 12.38-27.653 27.653-27.653a27.654 27.654 0 0 1 27.654 27.653c0 15.273-12.38 27.654-27.654 27.654-15.272 0-27.653-12.381-27.653-27.654z" fill-rule="evenodd"/><path stroke="#000" stroke-linejoin="round" stroke-linecap="butt" d="M62.835 278.38c0-15.272 12.38-27.653 27.653-27.653a27.654 27.654 0 0 1 27.654 27.653c0 15.273-12.38 27.654-27.654 27.654-15.272 0-27.653-12.381-27.653-27.654z"/><path fill="#666" d="M650.687 379.398c0-15.273 12.38-27.654 27.653-27.654a27.653 27.653 0 0 1 27.654 27.654c0 15.272-12.381 27.653-27.654 27.653-15.272 0-27.653-12.38-27.653-27.653z" fill-rule="evenodd"/><path stroke="#000" stroke-linejoin="round" stroke-linecap="butt" d="M650.687 379.398c0-15.273 12.38-27.654 27.653-27.654a27.653 27.653 0 0 1 27.654 27.654c0 15.272-12.381 27.653-27.654 27.653-15.272 0-27.653-12.38-27.653-27.653z"/><path fill="#666" d="M80.516 365.565a9.213 9.213 0 0 1 18.425 0 9.213 9.213 0 0 1-18.425 0z" fill-rule="evenodd"/><path stroke="#000" stroke-linejoin="round" stroke-linecap="butt" d="M80.516 365.565a9.213 9.213 0 0 1 18.425 0 9.213 9.213 0 0 1-18.425 0z"/><path fill="#666" d="M80.516 402.429a9.213 9.213 0 0 1 18.425 0 9.213 9.213 0 1 1-18.425 0z" fill-rule="evenodd"/><path stroke="#000" stroke-linejoin="round" stroke-linecap="butt" d="M80.516 402.429a9.213 9.213 0 0 1 18.425 0 9.213 9.213 0 1 1-18.425 0z"/><path fill="#666" d="M62.084 383.997a9.213 9.213 0 0 1 18.425 0 9.213 9.213 0 0 1-18.425 0z" fill-rule="evenodd"/><path stroke="#000" stroke-linejoin="round" stroke-linecap="butt" d="M62.084 383.997a9.213 9.213 0 0 1 18.425 0 9.213 9.213 0 0 1-18.425 0z"/><path fill="#666" d="M98.948 383.997a9.213 9.213 0 1 1 18.425 0 9.213 9.213 0 0 1-18.425 0z" fill-rule="evenodd"/><path stroke="#000" stroke-linejoin="round" stroke-linecap="butt" d="M98.948 383.997a9.213 9.213 0 1 1 18.425 0 9.213 9.213 0 0 1-18.425 0z"/><path fill="#666" d="M668.368 259.94a9.212 9.212 0 1 1 18.425 0 9.213 9.213 0 1 1-18.425 0z" fill-rule="evenodd"/><path stroke="#000" stroke-linejoin="round" stroke-linecap="butt" d="M668.368 259.94a9.212 9.212 0 1 1 18.425 0 9.213 9.213 0 1 1-18.425 0z"/><path fill="#666" d="M668.368 296.803a9.213 9.213 0 0 1 9.212-9.212 9.212 9.212 0 0 1 9.213 9.212 9.213 9.213 0 0 1-18.425 0z" fill-rule="evenodd"/><path stroke="#000" stroke-linejoin="round" stroke-linecap="butt" d="M668.368 296.803a9.213 9.213 0 0 1 9.212-9.212 9.212 9.212 0 0 1 9.213 9.212 9.213 9.213 0 0 1-18.425 0z"/><path fill="#666" d="M649.936 278.371a9.213 9.213 0 0 1 18.425 0 9.213 9.213 0 1 1-18.425 0z" fill-rule="evenodd"/><path stroke="#000" stroke-linejoin="round" stroke-linecap="butt" d="M649.936 278.371a9.213 9.213 0 0 1 18.425 0 9.213 9.213 0 1 1-18.425 0z"/><path fill="#666" d="M686.8 278.371a9.212 9.212 0 1 1 18.425 0 9.213 9.213 0 1 1-18.425 0z" fill-rule="evenodd"/><path stroke="#000" stroke-linejoin="round" stroke-linecap="butt" d="M686.8 278.371a9.212 9.212 0 1 1 18.425 0 9.213 9.213 0 1 1-18.425 0z"/><path fill="#666" d="M631.627 472.806a9.213 9.213 0 0 1 18.425 0 9.213 9.213 0 1 1-18.425 0z" fill-rule="evenodd"/><path stroke="#000" stroke-linejoin="round" stroke-linecap="butt" d="M631.627 472.806a9.213 9.213 0 0 1 18.425 0 9.213 9.213 0 1 1-18.425 0z"/><path fill="#666" d="M118.007 463.593h18.426v18.426h-18.426z" fill-rule="evenodd"/><path stroke="#000" stroke-linejoin="round" stroke-linecap="butt" d="M118.007 463.593h18.426v18.426h-18.426z"/><path fill="#666" d="M630.685 212.54h6.909v-6.91h6.504v6.91h6.91v6.504h-6.91v6.91h-6.504v-6.91h-6.91z" fill-rule="evenodd"/><path stroke="#000" stroke-linejoin="round" stroke-linecap="butt" d="M630.685 212.54h6.909v-6.91h6.504v6.91h6.91v6.504h-6.91v6.91h-6.504v-6.91h-6.91z"/><path fill="#666" d="M117.065 212.54h20.322v6.504h-20.322z" fill-rule="evenodd"/><path stroke="#000" stroke-linejoin="round" stroke-linecap="butt" d="M117.065 212.54h20.322v6.504h-20.322z"/><path fill="#a4c2f4" d="M174.313 217.872h418.016v332.252H174.313z" fill-rule="evenodd"/><path stroke="#000" stroke-linejoin="round" stroke-linecap="butt" d="M174.313 217.872h418.016v332.252H174.313z"/><path fill="#434343" d="M377.228 601.834h12.19v110.803h-12.19z" fill-rule="evenodd"/><path stroke="#000" stroke-linejoin="round" stroke-linecap="butt" d="M377.228 601.834h12.19v110.803h-12.19z"/><path fill="#434343" d="M374.11 574.186h18.426v27.653h-18.425z" fill-rule="evenodd"/><path stroke="#434343" stroke-linejoin="round" stroke-linecap="butt" d="M374.11 574.186h18.426v27.653h-18.425z"/><path fill="#5dc5dc" d="M174.315 217.87h418.016v332.253H174.315z" fill-rule="evenodd"/><path fill="#000" d="M318.367 351.015q0-3.219-2.266-4.922-2.265-1.719-8.156-3.625-5.89-1.906-9.328-3.766-9.375-5.062-9.375-13.625 0-4.453 2.516-7.937 2.515-3.5 7.218-5.469 4.703-1.969 10.547-1.969 5.89 0 10.5 2.14 4.61 2.126 7.156 6.016 2.547 3.891 2.547 8.844h-11.328q0-3.781-2.375-5.875t-6.687-2.094q-4.157 0-6.47 1.766-2.296 1.75-2.296 4.61 0 2.687 2.703 4.5 2.703 1.812 7.953 3.39 9.672 2.906 14.078 7.219 4.422 4.297 4.422 10.719 0 7.14-5.406 11.203-5.39 4.047-14.531 4.047-6.344 0-11.563-2.313-5.203-2.328-7.937-6.36-2.735-4.046-2.735-9.374h11.36q0 9.11 10.875 9.11 4.047 0 6.312-1.642 2.266-1.656 2.266-4.593zm31.365-36.469v10.031h6.985v8.016h-6.985v20.39q0 2.266.875 3.25.875.97 3.328.97 1.813 0 3.203-.266v8.28q-3.203.97-6.609.97-11.484 0-11.703-11.594v-22h-5.969v-8.016h5.969v-10.031h10.906zm36.738 50.89q-.75-1.468-1.094-3.656-3.953 4.407-10.297 4.407-6.015 0-9.968-3.47-3.938-3.468-3.938-8.765 0-6.484 4.813-9.953 4.828-3.484 13.922-3.516h5.015v-2.343q0-2.828-1.453-4.532-1.453-1.703-4.578-1.703-2.766 0-4.328 1.328-1.563 1.313-1.563 3.625H362.08q0-3.546 2.188-6.562 2.203-3.031 6.203-4.75 4-1.719 8.984-1.719 7.547 0 11.985 3.797 4.437 3.797 4.437 10.672v17.703q.047 5.813 1.625 8.797v.64h-11.03zm-9.016-7.593q2.407 0 4.438-1.063 2.047-1.078 3.031-2.89v-7.032h-4.078q-8.187 0-8.719 5.672l-.03.641q0 2.031 1.42 3.36 1.438 1.312 3.938 1.312zm43.802-.453q3.016 0 4.907-1.657 1.89-1.656 1.953-4.421h10.234q-.031 4.156-2.266 7.609-2.218 3.453-6.093 5.36-3.875 1.906-8.547 1.906-8.766 0-13.828-5.563-5.063-5.578-5.063-15.39v-.72q0-9.437 5.016-15.062 5.031-5.625 13.797-5.625 7.656 0 12.28 4.36 4.642 4.359 4.704 11.609h-10.234q-.063-3.172-1.953-5.156-1.891-1.985-4.985-1.985-3.812 0-5.765 2.782-1.938 2.78-1.938 9v1.14q0 6.297 1.922 9.063 1.922 2.75 5.86 2.75zm38.17-8.344-3.922 3.937v12.454h-10.922v-58h10.922v32.14l2.109-2.719 10.453-12.28h13.11l-14.766 17.03 16.047 23.829h-12.531l-10.5-16.391zM254.575 443.815q0-3.219-2.266-4.922-2.265-1.719-8.156-3.625-5.89-1.906-9.328-3.766-9.375-5.062-9.375-13.625 0-4.453 2.516-7.937 2.515-3.5 7.218-5.469 4.704-1.969 10.547-1.969 5.89 0 10.5 2.14 4.61 2.126 7.157 6.016 2.546 3.891 2.546 8.844h-11.328q0-3.781-2.375-5.875t-6.687-2.094q-4.156 0-6.469 1.766-2.297 1.75-2.297 4.61 0 2.687 2.703 4.5 2.703 1.812 7.953 3.39 9.672 2.906 14.079 7.219 4.421 4.297 4.421 10.719 0 7.14-5.406 11.203-5.39 4.047-14.531 4.047-6.344 0-11.563-2.313-5.203-2.328-7.937-6.36-2.734-4.046-2.734-9.374h11.359q0 9.11 10.875 9.11 4.047 0 6.312-1.642 2.266-1.656 2.266-4.593zm28.537-26.438.344 4.578q4.344-5.328 11.734-5.328 7.89 0 10.844 6.235 4.297-6.235 12.266-6.235 6.656 0 9.89 3.875 3.25 3.86 3.25 11.64v26.095h-10.953V432.19q0-3.485-1.36-5.078-1.359-1.61-4.78-1.61-4.922 0-6.797 4.688l.03 28.047h-10.905V432.22q0-3.547-1.407-5.125-1.39-1.594-4.75-1.594-4.64 0-6.718 3.844v28.89h-10.922v-40.859h10.234zm80.382 40.86q-.75-1.47-1.093-3.657-3.953 4.407-10.297 4.407-6.016 0-9.969-3.47-3.937-3.468-3.937-8.765 0-6.484 4.812-9.953 4.828-3.484 13.922-3.516h5.016v-2.343q0-2.828-1.454-4.532-1.453-1.703-4.578-1.703-2.765 0-4.328 1.328-1.562 1.313-1.562 3.625h-10.922q0-3.546 2.187-6.562 2.203-3.031 6.203-4.75 4-1.719 8.985-1.719 7.547 0 11.984 3.797 4.438 3.797 4.438 10.672v17.703q.047 5.813 1.625 8.797v.64h-11.032zm-9.015-7.594q2.406 0 4.437-1.063 2.047-1.078 3.032-2.89v-7.032h-4.079q-8.187 0-8.718 5.672l-.032.641q0 2.031 1.422 3.36 1.438 1.312 3.938 1.312zm48.927-3.703q0-2-1.985-3.14-1.968-1.157-6.36-2.063-14.577-3.063-14.577-12.391 0-5.438 4.515-9.078 4.516-3.64 11.797-3.64 7.782 0 12.438 3.671 4.672 3.656 4.672 9.5h-10.907q0-2.328-1.515-3.86-1.516-1.53-4.719-1.53-2.75 0-4.266 1.25-1.515 1.234-1.515 3.171 0 1.813 1.719 2.922 1.718 1.11 5.796 1.922 4.079.813 6.875 1.828 8.641 3.172 8.641 10.985 0 5.593-4.797 9.046-4.781 3.454-12.375 3.454-5.14 0-9.125-1.829-3.984-1.828-6.25-5.015-2.265-3.188-2.265-6.89h10.343q.157 2.905 2.157 4.452 2 1.547 5.359 1.547 3.14 0 4.734-1.187 1.61-1.188 1.61-3.125zm28.29-25.11q4.344-5.203 10.906-5.203 13.297 0 13.485 15.438v26.172h-10.922v-25.86q0-3.515-1.516-5.187-1.5-1.688-5.016-1.688-4.796 0-6.937 3.703v29.032h-10.922v-58h10.922v21.593zm51.427 37.157q-8.985 0-14.64-5.5-5.642-5.516-5.642-14.688v-1.062q0-6.157 2.375-11 2.375-4.86 6.735-7.485 4.375-2.625 9.953-2.625 8.39 0 13.203 5.297 4.813 5.281 4.813 14.984v4.454h-26.016q.531 4 3.187 6.421 2.672 2.407 6.75 2.407 6.297 0 9.844-4.563l5.36 6q-2.454 3.469-6.641 5.422-4.188 1.938-9.281 1.938zm-1.25-33.532q-3.25 0-5.266 2.203-2.016 2.188-2.594 6.266h15.188v-.875q-.078-3.625-1.969-5.61-1.89-1.984-5.36-1.984zm22.532 12.047q0-9.547 4.281-15.203 4.297-5.672 11.735-5.672 5.968 0 9.86 4.453v-20.843h10.952v58h-9.86l-.53-4.344q-4.079 5.094-10.5 5.094-7.204 0-11.579-5.672-4.359-5.688-4.359-15.813zm10.922.797q0 5.734 2 8.797 2 3.062 5.812 3.062 5.063 0 7.141-4.265v-16.125q-2.047-4.266-7.062-4.266-7.891 0-7.891 12.797z"/></g></svg>