<?xml version="1.0" encoding="UTF-8"?>
<!-- Created with Inkscape (http://www.inkscape.org/) -->
<svg id="SVGRoot" width="1060" height="720" version="1.1" viewBox="0 0 1060 720" xmlns="http://www.w3.org/2000/svg">
 <g transform="scale(20)">
  <rect x="4" y="4" width="12" height="19" ry="4" fill="#159dd7"/>
  <rect x="37" y="4" width="12" height="19" ry="4" fill="#d7153a"/>
  <rect x="11" y="4" width="31" height="19" ry="0" fill="#111118"/>
  <rect x="14" y="6" width="25" height="15" ry="0" fill="#349cc9"/>
 </g>
 <g transform="scale(20)" fill="#070710">
  <circle cx="7.5" cy="8.5" r="1.5"/>
  <circle cx="6" cy="13.5" r=".75"/>
  <circle cx="7.5" cy="12" r=".75"/>
  <circle cx="9" cy="13.5" r=".75"/>
  <circle cx="7.5" cy="15" r=".75"/>
  <circle transform="scale(-1)" cx="-45.5" cy="-13.5" r="1.5"/>
  <circle transform="scale(-1)" cx="-47" cy="-8.5" r=".75"/>
  <circle transform="scale(-1)" cx="-45.5" cy="-10" r=".75"/>
  <circle transform="scale(-1)" cx="-44" cy="-8.5" r=".75"/>
  <circle transform="scale(-1)" cx="-45.5" cy="-7" r=".75"/>
  <rect x="8" y="17" width="1" height="1" ry="0"/>
 </g>
 <rect x="875.98" y="335.98" width="28.028" height="28.028" ry="14.014" fill="#363641" stroke-width="20"/>
 <rect x="880" y="340" width="20" height="20" ry="10" fill="#070710" stroke-width="20"/>
 <rect x="80" y="80" width="900" height="380" ry="80" fill="none" stroke="#070710" stroke-width="16"/>
 <rect x="500" y="468" width="40" height="63.7" ry="4.1378" fill="#111118" stroke-width="20"/>
 <g transform="scale(20)" fill="none">
  <path d="m26 25.37v11.461" stroke="#111118"/>
  <path d="m42 4v19" stroke="#070710" stroke-width=".8"/>
  <path d="m11 4v19" stroke="#070710" stroke-width=".8"/>
 </g>
 <g transform="scale(20)" fill="#cacadb" stroke-width=".28617" aria-label="STACK SMASHED">
  <path d="m20.697 12.522q-0.42926 0-0.71257-0.12019-0.28331-0.12448-0.42926-0.32194t-0.15453-0.42067q0-0.03434 0.02576-0.0601 0.03005-0.03005 0.06868-0.03005h0.54087q0.0601 0 0.09014 0.02146 0.03434 0.02146 0.0601 0.0558 0.03434 0.06439 0.09444 0.12448 0.06439 0.0601 0.16312 0.09873 0.10302 0.03434 0.25326 0.03434 0.24897 0 0.37346-0.07727 0.12878-0.07727 0.12878-0.21034 0-0.09444-0.06868-0.15453-0.06868-0.06439-0.22322-0.11161-0.15024-0.05151-0.4035-0.10302-0.32624-0.06868-0.55804-0.176-0.22751-0.11161-0.3477-0.2876-0.12019-0.18029-0.12019-0.44643 0-0.26185 0.14595-0.46789 0.15024-0.20604 0.41638-0.32194t0.63101-0.1159q0.29619 0 0.5194 0.077267 0.22751 0.077267 0.38204 0.20604 0.15453 0.12878 0.2318 0.27473 0.08156 0.14166 0.08585 0.27902 0 0.03434-0.02576 0.06439-0.02576 0.02576-0.06439 0.02576h-0.56662q-0.04722 0-0.08156-0.01717t-0.0601-0.0558q-0.02576-0.09444-0.13736-0.16312-0.10732-0.07297-0.28331-0.07297-0.18888 0-0.29619 0.06868-0.10302 0.06439-0.10302 0.20175 0 0.08585 0.0558 0.15024 0.0601 0.06439 0.19317 0.11161 0.13736 0.04722 0.37346 0.09873 0.39063 0.07297 0.63101 0.18458 0.24039 0.10732 0.35199 0.28331 0.11161 0.1717 0.11161 0.43355 0 0.2919-0.16741 0.50653-0.16312 0.21034-0.45502 0.32194-0.2919 0.11161-0.66965 0.11161z"/>
  <path d="m23.159 12.479q-0.04722 0-0.07727-0.03005t-0.03005-0.07727v-2.2236h-0.76408q-0.04722 0-0.07727-0.03005-0.03005-0.03434-0.03005-0.07727v-0.4593q0-0.047219 0.03005-0.077267t0.07727-0.030048h2.3094q0.04722 0 0.07727 0.030048t0.03005 0.077267v0.45931q0 0.04293-0.03005 0.07727-0.03005 0.03005-0.07727 0.03005h-0.76408v2.2236q0 0.04722-0.03005 0.07727t-0.07727 0.03005z"/>
  <path d="m24.618 12.479q-0.03434 0-0.06439-0.02576-0.02576-0.03005-0.02576-0.06439 0-0.02146 0.0043-0.03863l1.0088-2.7558q0.01288-0.047219 0.05151-0.081559 0.04293-0.038633 0.1159-0.038633h0.6353q0.07297 0 0.11161 0.038633 0.04293 0.034341 0.0558 0.081559l1.0045 2.7558q0.0086 0.01717 0.0086 0.03863 0 0.03434-0.03005 0.06439-0.02576 0.02576-0.06439 0.02576h-0.52799q-0.06439 0-0.09873-0.03005-0.03005-0.03434-0.03863-0.0601l-0.16742-0.43784h-1.1461l-0.16312 0.43785q-0.0086 0.02576-0.03863 0.0601-0.03005 0.03005-0.10302 0.03005zm1.0088-1.1461h0.79842l-0.4035-1.1332z"/>
  <path d="m29.03 12.522q-0.4078 0-0.69969-0.13307-0.2876-0.13307-0.45072-0.39063-0.15883-0.25756-0.176-0.6396-0.0043-0.176-0.0043-0.37775t0.0043-0.38633q0.01717-0.37346 0.18029-0.63101 0.16312-0.26185 0.45502-0.39492 0.2919-0.13736 0.69111-0.13736 0.28331 0 0.5237 0.072974 0.24039 0.068682 0.42068 0.20604 0.18029 0.13307 0.27902 0.32624 0.10302 0.18887 0.10732 0.42926 0.0043 0.03863-0.02576 0.06439-0.02576 0.02576-0.06439 0.02576h-0.5795q-0.0558 0-0.08585-0.02146-0.03005-0.02576-0.05151-0.09014-0.0601-0.22751-0.19746-0.30907-0.13307-0.08585-0.33053-0.08585-0.23609 0-0.37346 0.13307-0.13736 0.12878-0.15024 0.43355-0.01288 0.35199 0 0.72116 0.01288 0.30477 0.15024 0.43784 0.13736 0.12878 0.37346 0.12878 0.19746 0 0.33482-0.08585t0.19317-0.30907q0.01717-0.06439 0.04722-0.08585 0.03434-0.02576 0.09014-0.02576h0.5795q0.03863 0 0.06439 0.02576 0.03005 0.02576 0.02576 0.06439-0.0043 0.24038-0.10732 0.43355-0.09873 0.18888-0.27902 0.32624-0.18029 0.13307-0.42068 0.20604-0.24039 0.06868-0.5237 0.06868z"/>
  <path d="m30.919 12.479q-0.04722 0-0.07727-0.03005t-0.03005-0.07727v-2.7902q0-0.047219 0.03005-0.077267t0.07727-0.030048h0.54087q0.04722 0 0.07727 0.030048t0.03005 0.077267v0.95296l0.79413-0.97871q0.01717-0.025756 0.0558-0.051511 0.04293-0.030048 0.11161-0.030048h0.61813q0.03863 0 0.06439 0.030048 0.02576 0.025756 0.02576 0.060096 0 0.030048-0.01717 0.051511l-1.0259 1.2964 1.1075 1.4251q0.01717 0.01717 0.01717 0.05151t-0.03005 0.06439q-0.02576 0.02576-0.0601 0.02576h-0.6396q-0.07727 0-0.12019-0.03434-0.03863-0.03434-0.05151-0.05151l-0.84994-1.0603v1.0388q0 0.04722-0.03005 0.07727t-0.07727 0.03005z"/>
  <path d="m17.093 17.905q-0.42926 0-0.71257-0.12019-0.28331-0.12449-0.42926-0.32194-0.14595-0.19746-0.15453-0.42068 0-0.03434 0.02576-0.0601 0.03005-0.03005 0.06868-0.03005h0.54087q0.0601 0 0.09014 0.02146 0.03434 0.02146 0.0601 0.0558 0.03434 0.06439 0.09444 0.12448 0.06439 0.0601 0.16312 0.09873 0.10302 0.03434 0.25326 0.03434 0.24897 0 0.37346-0.07727 0.12878-0.07727 0.12878-0.21034 0-0.09444-0.06868-0.15453-0.06868-0.06439-0.22322-0.11161-0.15024-0.05151-0.4035-0.10302-0.32624-0.06868-0.55804-0.176-0.22751-0.11161-0.3477-0.2876-0.12019-0.18029-0.12019-0.44643 0-0.26185 0.14595-0.46789 0.15024-0.20604 0.41638-0.32194t0.63101-0.1159q0.29619 0 0.5194 0.07727 0.22751 0.07727 0.38204 0.20604 0.15453 0.12878 0.2318 0.27473 0.08156 0.14166 0.08585 0.27902 0 0.03434-0.02576 0.06439-0.02576 0.02576-0.06439 0.02576h-0.56662q-0.04722 0-0.08156-0.01717t-0.0601-0.0558q-0.02576-0.09444-0.13736-0.16312-0.10732-0.07297-0.28331-0.07297-0.18887 0-0.29619 0.06868-0.10302 0.06439-0.10302 0.20175 0 0.08585 0.0558 0.15024 0.0601 0.06439 0.19317 0.11161 0.13736 0.04722 0.37346 0.09873 0.39063 0.07297 0.63101 0.18458 0.24039 0.10732 0.35199 0.28331 0.11161 0.1717 0.11161 0.43355 0 0.2919-0.16741 0.50653-0.16312 0.21034-0.45502 0.32194-0.2919 0.11161-0.66964 0.11161z"/>
  <path d="m18.926 17.862q-0.04293 0-0.07727-0.03005-0.03005-0.03005-0.03005-0.07727v-2.7902q0-0.04722 0.03005-0.07727 0.03434-0.03005 0.07727-0.03005h0.4636q0.06868 0 0.10302 0.03863 0.03863 0.03434 0.04722 0.0558l0.7555 1.3565 0.7555-1.3565q0.01288-0.02146 0.04293-0.0558 0.03434-0.03863 0.10732-0.03863h0.45931q0.04722 0 0.07727 0.03005 0.03434 0.03005 0.03434 0.07727v2.7902q0 0.04722-0.03434 0.07727-0.03005 0.03005-0.07727 0.03005h-0.51082q-0.04722 0-0.08156-0.03005-0.03005-0.03005-0.03005-0.07727v-1.6097l-0.48506 0.89715q-0.01717 0.03863-0.05151 0.06868t-0.09444 0.03005h-0.22322q-0.0601 0-0.09444-0.03005t-0.0558-0.06868l-0.48506-0.89715v1.6097q0 0.04722-0.03005 0.07727t-0.07727 0.03005z"/>
  <path d="m22.201 17.862q-0.03434 0-0.06439-0.02576-0.02576-0.03005-0.02576-0.06439 0-0.02146 0.0043-0.03863l1.0088-2.7558q0.01288-0.04722 0.05151-0.08156 0.04293-0.03863 0.1159-0.03863h0.6353q0.07297 0 0.11161 0.03863 0.04293 0.03434 0.0558 0.08156l1.0045 2.7558q0.0086 0.01717 0.0086 0.03863 0 0.03434-0.03005 0.06439-0.02576 0.02576-0.06439 0.02576h-0.52799q-0.06439 0-0.09873-0.03005-0.03005-0.03434-0.03863-0.0601l-0.16741-0.43784h-1.1461l-0.16312 0.43784q-0.0086 0.02576-0.03863 0.0601-0.03005 0.03005-0.10302 0.03005zm1.0088-1.1461h0.79842l-0.4035-1.1332z"/>
  <path d="m26.521 17.905q-0.42926 0-0.71257-0.12019-0.28331-0.12449-0.42926-0.32194-0.14595-0.19746-0.15453-0.42068 0-0.03434 0.02576-0.0601 0.03005-0.03005 0.06868-0.03005h0.54087q0.0601 0 0.09014 0.02146 0.03434 0.02146 0.0601 0.0558 0.03434 0.06439 0.09444 0.12448 0.06439 0.0601 0.16312 0.09873 0.10302 0.03434 0.25326 0.03434 0.24897 0 0.37346-0.07727 0.12878-0.07727 0.12878-0.21034 0-0.09444-0.06868-0.15453-0.06868-0.06439-0.22322-0.11161-0.15024-0.05151-0.4035-0.10302-0.32624-0.06868-0.55804-0.176-0.22751-0.11161-0.3477-0.2876-0.12019-0.18029-0.12019-0.44643 0-0.26185 0.14595-0.46789 0.15024-0.20604 0.41638-0.32194t0.63101-0.1159q0.29619 0 0.5194 0.07727 0.22751 0.07727 0.38204 0.20604 0.15453 0.12878 0.2318 0.27473 0.08156 0.14166 0.08585 0.27902 0 0.03434-0.02576 0.06439-0.02576 0.02576-0.06439 0.02576h-0.56662q-0.04722 0-0.08156-0.01717t-0.0601-0.0558q-0.02576-0.09444-0.13736-0.16312-0.10732-0.07297-0.28331-0.07297-0.18887 0-0.29619 0.06868-0.10302 0.06439-0.10302 0.20175 0 0.08585 0.0558 0.15024 0.0601 0.06439 0.19317 0.11161 0.13736 0.04722 0.37346 0.09873 0.39063 0.07297 0.63101 0.18458 0.24038 0.10732 0.35199 0.28331 0.11161 0.1717 0.11161 0.43355 0 0.2919-0.16741 0.50653-0.16312 0.21034-0.45502 0.32194-0.2919 0.11161-0.66964 0.11161z"/>
  <path d="m28.354 17.862q-0.04722 0-0.07727-0.03005t-0.03005-0.07727v-2.7902q0-0.04722 0.03005-0.07727t0.07727-0.03005h0.55374q0.04722 0 0.07727 0.03005t0.03005 0.07727v1.0345h1.0603v-1.0345q0-0.04722 0.03005-0.07727t0.07727-0.03005h0.55374q0.04722 0 0.07727 0.03005t0.03005 0.07727v2.7902q0 0.04722-0.03005 0.07727t-0.07727 0.03005h-0.55374q-0.04722 0-0.07727-0.03005t-0.03005-0.07727v-1.0689h-1.0603v1.0689q0 0.04722-0.03005 0.07727t-0.07727 0.03005z"/>
  <path d="m31.552 17.862q-0.04722 0-0.07727-0.03005t-0.03005-0.07727v-2.7902q0-0.04722 0.03005-0.07727t0.07727-0.03005h2.0046q0.04722 0 0.07727 0.03005t0.03005 0.07727v0.4035q0 0.04722-0.03005 0.07727t-0.07727 0.03005h-1.3693v0.5795h1.2749q0.04722 0 0.07727 0.03434 0.03005 0.03005 0.03005 0.07727v0.37346q0 0.04293-0.03005 0.07727-0.03005 0.03005-0.07727 0.03005h-1.2749v0.59667h1.4037q0.04722 0 0.07727 0.03005t0.03005 0.07727v0.4035q0 0.04722-0.03005 0.07727t-0.07727 0.03005z"/>
  <path d="m34.295 17.862q-0.04722 0-0.07727-0.03005t-0.03005-0.07727v-2.7902q0-0.04722 0.03005-0.07727t0.07727-0.03005h1.1161q0.42068 0 0.71686 0.13736 0.29619 0.13307 0.45502 0.39492 0.15883 0.25756 0.1717 0.6396 0.0043 0.18888 0.0043 0.33053 0 0.14166-0.0043 0.32624-0.01717 0.39921-0.1717 0.66106-0.15024 0.26185-0.44214 0.39063-0.2876 0.12448-0.70828 0.12448zm0.66106-0.61813h0.45502q0.18458 0 0.30478-0.0558 0.12448-0.0601 0.18458-0.18458 0.06439-0.12448 0.06868-0.32624 0.0086-0.12449 0.0086-0.22322 0.0043-0.09873 0-0.19746 0-0.09873-0.0086-0.21892-0.0086-0.2919-0.15453-0.42497-0.14166-0.13736-0.42497-0.13736h-0.43355z"/>
 </g>
</svg>
