<?xml version="1.0" encoding="UTF-8"?>
<!-- Created with Inkscape (http://www.inkscape.org/) -->
<svg id="SVGRoot" width="1060" height="720" version="1.1" viewBox="0 0 1060 720" xmlns="http://www.w3.org/2000/svg">
 <g transform="matrix(20 0 0 20 0 -1.1133e-5)">
  <rect x="4" y="4" width="12" height="19" ry="4" fill="#159dd7"/>
  <rect x="37" y="4" width="12" height="19" ry="4" fill="#d7153a"/>
  <rect x="11" y="4" width="31" height="19" ry="0" fill="#111118"/>
  <rect x="14" y="6" width="25" height="15" ry="0" fill="#363641"/>
 </g>
 <g transform="matrix(20 0 0 20 0 -1.1133e-5)" fill="#070710">
  <circle cx="7.5" cy="8.5" r="1.5"/>
  <circle cx="6" cy="13.5" r=".75"/>
  <circle cx="7.5" cy="12" r=".75"/>
  <circle cx="9" cy="13.5" r=".75"/>
  <circle cx="7.5" cy="15" r=".75"/>
  <circle transform="scale(-1)" cx="-45.5" cy="-13.5" r="1.5"/>
  <circle transform="scale(-1)" cx="-47" cy="-8.5" r=".75"/>
  <circle transform="scale(-1)" cx="-45.5" cy="-10" r=".75"/>
  <circle transform="scale(-1)" cx="-44" cy="-8.5" r=".75"/>
  <circle transform="scale(-1)" cx="-45.5" cy="-7" r=".75"/>
  <rect x="8" y="17" width="1" height="1" ry="0"/>
 </g>
 <rect x="875.98" y="335.98" width="28.028" height="28.028" ry="14.014" fill="#363641" stroke-width="20"/>
 <rect x="880" y="340" width="20" height="20" ry="10" fill="#070710" stroke-width="20"/>
 <rect x="80" y="80" width="900" height="380" ry="80" fill="none" stroke="#070710" stroke-width="16"/>
 <rect x="500" y="510" width="40" height="63.7" ry="4.1378" fill="#111118" stroke-width="20"/>
 <rect x="506.14" y="484.7" width="27.706" height="25.298" fill="#9e9eae" stroke-width="20"/>
 <g transform="matrix(20 0 0 20 0 -1.1133e-5)" fill="none">
  <path d="m26 27.443v9.3883" stroke="#111118"/>
  <path d="m42 4v19" stroke="#070710" stroke-width=".8"/>
  <path d="m11 4v19" stroke="#070710" stroke-width=".8"/>
 </g>
 <g transform="matrix(20 0 0 20 0 -1.1133e-5)" fill="#cacadb" stroke-width=".31915" aria-label="RCM NOT FOUND">
  <path d="m16.039 12.342q-0.05266 0-0.08617-0.03351t-0.03351-0.08617v-3.1117q0-0.052659 0.03351-0.08617t0.08617-0.033511h1.3021q0.61755 0 0.9718 0.28723 0.35904 0.28245 0.35904 0.80425 0 0.33989-0.16755 0.57446-0.16276 0.23457-0.43085 0.35425l0.66064 1.1777q0.01436 0.02872 0.01436 0.05266 0 0.0383-0.03351 0.07181-0.02872 0.02872-0.07181 0.02872h-0.63191q-0.09096 0-0.13404-0.04309-0.04308-0.04787-0.06223-0.08617l-0.54574-1.0532h-0.49308v1.0628q0 0.05266-0.03351 0.08617t-0.08617 0.03351zm0.73723-1.8574h0.55532q0.225 0 0.3351-0.11011 0.11489-0.11011 0.11489-0.30159 0-0.1867-0.11011-0.30159-0.10532-0.11489-0.33989-0.11489h-0.55532z"/>
  <path d="m20.586 12.39q-0.45478 0-0.78032-0.1484-0.32074-0.1484-0.50266-0.43564-0.17713-0.28723-0.19628-0.71329-0.0048-0.19628-0.0048-0.42128t0.0048-0.43085q0.01915-0.41649 0.20106-0.70372 0.18191-0.29202 0.50744-0.44042 0.32553-0.15319 0.77074-0.15319 0.31596 0 0.58404 0.081383 0.26808 0.076595 0.46915 0.22979 0.20106 0.1484 0.31117 0.36383 0.11489 0.21064 0.11968 0.47872 0.0048 0.04308-0.02872 0.07181-0.02872 0.02872-0.07181 0.02872h-0.64627q-0.06223 0-0.09574-0.02394-0.03351-0.02872-0.05745-0.10053-0.06702-0.25372-0.22021-0.34468-0.1484-0.095744-0.36862-0.095744-0.2633 0-0.41649 0.1484-0.15319 0.14362-0.16755 0.48351-0.01436 0.39255 0 0.80425 0.01436 0.33989 0.16755 0.4883 0.15319 0.14362 0.41649 0.14362 0.22021 0 0.3734-0.09574t0.21542-0.34468q0.01915-0.07181 0.05266-0.09574 0.0383-0.02872 0.10053-0.02872h0.64627q0.04308 0 0.07181 0.02872 0.03351 0.02872 0.02872 0.07181-0.0048 0.26808-0.11968 0.48351-0.11011 0.21064-0.31117 0.36383-0.20106 0.1484-0.46915 0.22979-0.26808 0.0766-0.58404 0.0766z"/>
  <path d="m22.693 12.342q-0.04787 0-0.08617-0.03351-0.03351-0.03351-0.03351-0.08617v-3.1117q0-0.052659 0.03351-0.08617 0.0383-0.033511 0.08617-0.033511h0.51702q0.0766 0 0.11489 0.043085 0.04309 0.038298 0.05266 0.062234l0.84255 1.5128 0.84255-1.5128q0.01436-0.023936 0.04787-0.062234 0.0383-0.043085 0.11968-0.043085h0.51223q0.05266 0 0.08617 0.033511 0.0383 0.033511 0.0383 0.08617v3.1117q0 0.05266-0.0383 0.08617-0.03351 0.03351-0.08617 0.03351h-0.56968q-0.05266 0-0.09096-0.03351-0.03351-0.03351-0.03351-0.08617v-1.7952l-0.54095 1.0005q-0.01915 0.04308-0.05745 0.0766-0.0383 0.03351-0.10532 0.03351h-0.24894q-0.06702 0-0.10532-0.03351t-0.06223-0.0766l-0.54095-1.0005v1.7952q0 0.05266-0.03351 0.08617t-0.08617 0.03351z"/>
  <path d="m27.676 12.342q-0.05266 0-0.08617-0.03351t-0.03351-0.08617v-3.1117q0-0.052659 0.03351-0.08617t0.08617-0.033511h0.50744q0.08138 0 0.11489 0.038298 0.0383 0.033511 0.04787 0.052659l1.1681 1.8431v-1.8144q0-0.052659 0.03351-0.08617t0.08617-0.033511h0.57446q0.05266 0 0.08617 0.033511t0.03351 0.08617v3.1117q0 0.04787-0.03351 0.08617-0.03351 0.03351-0.08617 0.03351h-0.51223q-0.07659 0-0.11489-0.0383-0.03351-0.0383-0.04309-0.05266l-1.1681-1.7713v1.7425q0 0.05266-0.03351 0.08617t-0.08617 0.03351z"/>
  <path d="m32.367 12.39q-0.44042 0-0.76595-0.14362t-0.50744-0.43085q-0.18191-0.29202-0.20106-0.72766-0.0048-0.20585-0.0048-0.4117t0.0048-0.41649q0.01915-0.43085 0.20106-0.72287 0.1867-0.29681 0.51223-0.44521t0.76117-0.1484q0.43085 0 0.75638 0.1484 0.33032 0.1484 0.51702 0.44521 0.1867 0.29202 0.20106 0.72287 0.0096 0.21064 0.0096 0.41649t-0.0096 0.4117q-0.01915 0.43564-0.20106 0.72766-0.18191 0.28723-0.50744 0.43085t-0.76595 0.14362zm0-0.68936q0.25372 0 0.4117-0.15319 0.16276-0.15319 0.17234-0.4883 0.0096-0.21064 0.0096-0.39734t-0.0096-0.38776q-0.0096-0.225-0.08617-0.36383-0.07181-0.14362-0.20106-0.21064-0.12926-0.067021-0.29681-0.067021-0.16276 0-0.29202 0.067021t-0.20585 0.21064q-0.0766 0.13883-0.08617 0.36383-0.0048 0.20106-0.0048 0.38776t0.0048 0.39734q0.01436 0.3351 0.17234 0.4883 0.15798 0.15319 0.4117 0.15319z"/>
  <path d="m35.212 12.342q-0.05266 0-0.08617-0.03351t-0.03351-0.08617v-2.4798h-0.85212q-0.05266 0-0.08617-0.033511-0.03351-0.038298-0.03351-0.08617v-0.51223q0-0.052659 0.03351-0.08617t0.08617-0.033511h2.5755q0.05266 0 0.08617 0.033511t0.03351 0.08617v0.51223q0 0.047872-0.03351 0.08617-0.03351 0.033511-0.08617 0.033511h-0.85212v2.4798q0 0.05266-0.03351 0.08617t-0.08617 0.03351z"/>
  <path d="m18.423 18.346q-0.05266 0-0.08617-0.03351t-0.03351-0.08617v-3.1117q0-0.05266 0.03351-0.08617t0.08617-0.03351h2.1973q0.05266 0 0.08617 0.03351 0.0383 0.03351 0.0383 0.08617v0.48351q0 0.05266-0.0383 0.08617-0.03351 0.03351-0.08617 0.03351h-1.4745v0.70372h1.3787q0.05266 0 0.08617 0.0383 0.0383 0.03351 0.0383 0.08617v0.47872q0 0.04787-0.0383 0.08617-0.03351 0.03351-0.08617 0.03351h-1.3787v1.0819q0 0.05266-0.03351 0.08617t-0.08617 0.03351z"/>
  <path d="m22.607 18.394q-0.44042 0-0.76595-0.14362t-0.50744-0.43085q-0.18191-0.29202-0.20106-0.72766-0.0048-0.20585-0.0048-0.4117t0.0048-0.41649q0.01915-0.43085 0.20106-0.72287 0.1867-0.29681 0.51223-0.44521t0.76117-0.1484q0.43085 0 0.75638 0.1484 0.33032 0.1484 0.51702 0.44521 0.1867 0.29202 0.20106 0.72287 0.0096 0.21064 0.0096 0.41649t-0.0096 0.4117q-0.01915 0.43564-0.20106 0.72766-0.18191 0.28723-0.50744 0.43085t-0.76595 0.14362zm0-0.68936q0.25372 0 0.4117-0.15319 0.16276-0.15319 0.17234-0.4883 0.0096-0.21064 0.0096-0.39734t-0.0096-0.38776q-0.0096-0.225-0.08617-0.36383-0.07181-0.14362-0.20106-0.21064-0.12926-0.06702-0.29681-0.06702-0.16276 0-0.29202 0.06702t-0.20585 0.21064q-0.0766 0.13883-0.08617 0.36383-0.0048 0.20106-0.0048 0.38776t0.0048 0.39734q0.01436 0.3351 0.17234 0.4883 0.15798 0.15319 0.4117 0.15319z"/>
  <path d="m26.049 18.394q-0.43085 0-0.75638-0.13883-0.32074-0.14362-0.49787-0.43564-0.17713-0.29681-0.17713-0.75159v-1.9532q0-0.05266 0.03351-0.08617t0.08617-0.03351h0.61755q0.05266 0 0.08617 0.03351t0.03351 0.08617v1.9484q0 0.31117 0.1484 0.46915 0.15319 0.15319 0.42606 0.15319 0.26808 0 0.41649-0.15319 0.15319-0.15798 0.15319-0.46915v-1.9484q0-0.05266 0.03351-0.08617 0.0383-0.03351 0.08617-0.03351h0.62234q0.04787 0 0.08138 0.03351 0.0383 0.03351 0.0383 0.08617v1.9532q0 0.45478-0.17713 0.75159-0.17713 0.29202-0.49787 0.43564-0.32074 0.13883-0.75638 0.13883z"/>
  <path d="m28.237 18.346q-0.05266 0-0.08617-0.03351t-0.03351-0.08617v-3.1117q0-0.05266 0.03351-0.08617t0.08617-0.03351h0.50744q0.08138 0 0.11489 0.0383 0.0383 0.03351 0.04787 0.05266l1.1681 1.8431v-1.8144q0-0.05266 0.03351-0.08617t0.08617-0.03351h0.57446q0.05266 0 0.08617 0.03351t0.03351 0.08617v3.1117q0 0.04787-0.03351 0.08617-0.03351 0.03351-0.08617 0.03351h-0.51223q-0.0766 0-0.11489-0.0383-0.03351-0.0383-0.04308-0.05266l-1.1681-1.7713v1.7425q0 0.05266-0.03351 0.08617t-0.08617 0.03351z"/>
  <path d="m31.679 18.346q-0.05266 0-0.08617-0.03351t-0.03351-0.08617v-3.1117q0-0.05266 0.03351-0.08617t0.08617-0.03351h1.2447q0.46915 0 0.79946 0.15319 0.33032 0.1484 0.50744 0.44042 0.17713 0.28723 0.19149 0.71329 0.0048 0.21064 0.0048 0.36862t-0.0048 0.36383q-0.01915 0.44521-0.19149 0.73723-0.16755 0.29202-0.49308 0.43564-0.32074 0.13883-0.78989 0.13883zm0.73723-0.68936h0.50744q0.20585 0 0.33989-0.06223 0.13883-0.06702 0.20585-0.20585 0.07181-0.13883 0.0766-0.36383 0.0096-0.13883 0.0096-0.24894 0.0048-0.11011 0-0.22021 0-0.11011-0.0096-0.24415-0.0096-0.32553-0.17234-0.47393-0.15798-0.15319-0.47393-0.15319h-0.48351z"/>
 </g>
</svg>
