<svg viewBox="0 0 768 768" fill="none" stroke-linecap="square" stroke-miterlimit="10" xmlns="http://www.w3.org/2000/svg"><clipPath id="a"><path d="M0 0h768v768H0V0z"/></clipPath><g clip-path="url(#a)"><path fill="none" d="M0 0h768v768H0z"/><path fill="#e06666" d="M739.191 249.402v269.201a55.384 55.384 0 0 1-55.383 55.384H617.49a.003.003 0 0 1-.004-.003l.004-379.966c0-.002.001-.003.003-.003l66.314.003c30.587 0 55.383 24.796 55.383 55.384z" fill-rule="evenodd"/><path stroke="#000" stroke-linejoin="round" stroke-linecap="butt" d="M739.191 249.402v269.201a55.384 55.384 0 0 1-55.383 55.384H617.49a.003.003 0 0 1-.004-.003l.004-379.966c0-.002.001-.003.003-.003l66.314.003c30.587 0 55.383 24.796 55.383 55.384z"/><path fill="#000" d="M150.522 193.814h467.055v380.378H150.522z" fill-rule="evenodd"/><path stroke="#000" stroke-linejoin="round" stroke-linecap="butt" d="M150.522 193.814h467.055v380.378H150.522z"/><path fill="#3c78d8" d="M28.809 518.549V249.41a55.384 55.384 0 0 1 55.383-55.383h66.317c.002 0 .004.001.004.003l-.004 379.902a.003.003 0 0 1-.003.003l-66.314-.003c-30.587 0-55.383-24.796-55.383-55.383z" fill-rule="evenodd"/><path stroke="#000" stroke-linejoin="round" stroke-linecap="butt" d="M28.809 518.549V249.41a55.384 55.384 0 0 1 55.383-55.383h66.317c.002 0 .004.001.004.003l-.004 379.902a.003.003 0 0 1-.003.003l-66.314-.003c-30.587 0-55.383-24.796-55.383-55.383z"/><path fill="#666" d="M62.835 278.396c0-15.281 12.388-27.67 27.67-27.67a27.67 27.67 0 0 1 27.668 27.67c0 15.281-12.387 27.67-27.669 27.67-15.281 0-27.67-12.389-27.67-27.67z" fill-rule="evenodd"/><path stroke="#000" stroke-linejoin="round" stroke-linecap="butt" d="M62.835 278.396c0-15.281 12.388-27.67 27.67-27.67a27.67 27.67 0 0 1 27.668 27.67c0 15.281-12.387 27.67-27.669 27.67-15.281 0-27.67-12.389-27.67-27.67z"/><path fill="#666" d="M650.687 379.413c0-15.281 12.388-27.669 27.67-27.669a27.67 27.67 0 0 1 27.668 27.67c0 15.28-12.388 27.669-27.669 27.669s-27.67-12.388-27.67-27.67z" fill-rule="evenodd"/><path stroke="#000" stroke-linejoin="round" stroke-linecap="butt" d="M650.687 379.413c0-15.281 12.388-27.669 27.67-27.669a27.67 27.67 0 0 1 27.668 27.67c0 15.28-12.388 27.669-27.669 27.669s-27.67-12.388-27.67-27.67z"/><path fill="#666" d="M80.516 365.58a9.228 9.228 0 0 1 18.457 0 9.228 9.228 0 0 1-18.457 0z" fill-rule="evenodd"/><path stroke="#000" stroke-linejoin="round" stroke-linecap="butt" d="M80.516 365.58a9.228 9.228 0 0 1 18.457 0 9.228 9.228 0 0 1-18.457 0z"/><path fill="#666" d="M80.516 402.444a9.228 9.228 0 0 1 18.457 0 9.228 9.228 0 1 1-18.457 0z" fill-rule="evenodd"/><path stroke="#000" stroke-linejoin="round" stroke-linecap="butt" d="M80.516 402.444a9.228 9.228 0 0 1 18.457 0 9.228 9.228 0 1 1-18.457 0z"/><path fill="#666" d="M62.084 384.012a9.228 9.228 0 1 1 18.457 0 9.228 9.228 0 0 1-18.457 0z" fill-rule="evenodd"/><path stroke="#000" stroke-linejoin="round" stroke-linecap="butt" d="M62.084 384.012a9.228 9.228 0 1 1 18.457 0 9.228 9.228 0 0 1-18.457 0z"/><path fill="#666" d="M98.948 384.012a9.228 9.228 0 1 1 18.457 0 9.228 9.228 0 0 1-18.457 0z" fill-rule="evenodd"/><path stroke="#000" stroke-linejoin="round" stroke-linecap="butt" d="M98.948 384.012a9.228 9.228 0 1 1 18.457 0 9.228 9.228 0 0 1-18.457 0z"/><path fill="#666" d="M668.368 259.955a9.228 9.228 0 0 1 18.457 0 9.228 9.228 0 1 1-18.457 0z" fill-rule="evenodd"/><path stroke="#000" stroke-linejoin="round" stroke-linecap="butt" d="M668.368 259.955a9.228 9.228 0 0 1 18.457 0 9.228 9.228 0 1 1-18.457 0z"/><path fill="#666" d="M668.368 296.82a9.228 9.228 0 0 1 18.457 0 9.228 9.228 0 1 1-18.457 0z" fill-rule="evenodd"/><path stroke="#000" stroke-linejoin="round" stroke-linecap="butt" d="M668.368 296.82a9.228 9.228 0 0 1 18.457 0 9.228 9.228 0 1 1-18.457 0z"/><path fill="#666" d="M649.936 278.387a9.228 9.228 0 0 1 18.457 0 9.228 9.228 0 0 1-18.457 0z" fill-rule="evenodd"/><path stroke="#000" stroke-linejoin="round" stroke-linecap="butt" d="M649.936 278.387a9.228 9.228 0 0 1 18.457 0 9.228 9.228 0 0 1-18.457 0z"/><path fill="#666" d="M686.8 278.387a9.228 9.228 0 0 1 18.457 0 9.228 9.228 0 1 1-18.457 0z" fill-rule="evenodd"/><path stroke="#000" stroke-linejoin="round" stroke-linecap="butt" d="M686.8 278.387a9.228 9.228 0 0 1 18.457 0 9.228 9.228 0 1 1-18.457 0z"/><path fill="#666" d="M631.627 472.822a9.228 9.228 0 0 1 18.457 0 9.228 9.228 0 1 1-18.457 0z" fill-rule="evenodd"/><path stroke="#000" stroke-linejoin="round" stroke-linecap="butt" d="M631.627 472.822a9.228 9.228 0 0 1 18.457 0 9.228 9.228 0 1 1-18.457 0z"/><path fill="#666" d="M118.007 463.593h18.457v18.457h-18.457z" fill-rule="evenodd"/><path stroke="#000" stroke-linejoin="round" stroke-linecap="butt" d="M118.007 463.593h18.457v18.457h-18.457z"/><path fill="#666" d="M630.685 212.54h6.909v-6.91h6.504v6.91h6.91v6.504h-6.91v6.91h-6.504v-6.91h-6.91z" fill-rule="evenodd"/><path stroke="#000" stroke-linejoin="round" stroke-linecap="butt" d="M630.685 212.54h6.909v-6.91h6.504v6.91h6.91v6.504h-6.91v6.91h-6.504v-6.91h-6.91z"/><path fill="#666" d="M117.065 212.54h20.322v6.504h-20.322z" fill-rule="evenodd"/><path stroke="#000" stroke-linejoin="round" stroke-linecap="butt" d="M117.065 212.54h20.322v6.504h-20.322z"/><path fill="#d9d9d9" d="M174.313 217.872h418.016v332.252H174.313z" fill-rule="evenodd"/><path stroke="#000" stroke-linejoin="round" stroke-linecap="butt" d="M174.313 217.872h418.016v332.252H174.313z"/><path fill="#434343" d="M377.228 636.367h12.19v76.252h-12.19z" fill-rule="evenodd"/><path stroke="#000" stroke-linejoin="round" stroke-linecap="butt" d="M377.228 636.367h12.19v76.252h-12.19z"/><path fill="#434343" d="M374.11 608.72h18.457v27.653h-18.456z" fill-rule="evenodd"/><path stroke="#434343" stroke-linejoin="round" stroke-linecap="butt" d="M374.11 608.72h18.457v27.653h-18.456z"/><path fill="#efefef" d="M377.901 596.008h12.19V608.7H377.9z" fill-rule="evenodd"/><path stroke="#000" stroke-linejoin="round" stroke-linecap="butt" d="M377.901 596.008h12.19V608.7H377.9z"/><path fill="#d9d9d9" d="M174.313 217.872h418.016v332.252H174.313z" fill-rule="evenodd"/><path fill="#000" d="M324.745 345.313h-9.031v20.125h-11.328V310.47h20.421q9.75 0 15.032 4.344 5.297 4.328 5.297 12.266 0 5.625-2.438 9.39-2.437 3.75-7.39 5.97l11.89 22.468v.531h-12.156l-10.297-20.125zm-9.031-9.172h9.14q4.266 0 6.61-2.172 2.343-2.172 2.343-5.984 0-3.89-2.218-6.11-2.203-2.234-6.782-2.234h-9.093v16.5zm81.177 10.985q-.64 8.875-6.547 13.968-5.906 5.094-15.578 5.094-10.562 0-16.625-7.11-6.062-7.124-6.062-19.546v-3.36q0-7.921 2.781-13.968 2.797-6.047 7.984-9.266 5.204-3.234 12.079-3.234 9.515 0 15.328 5.11 5.812 5.093 6.718 14.296h-11.328q-.406-5.313-2.968-7.703-2.547-2.406-7.75-2.406-5.672 0-8.485 4.062-2.812 4.047-2.89 12.578v4.156q0 8.907 2.703 13.032 2.703 4.11 8.515 4.11 5.25 0 7.828-2.392 2.594-2.406 2.97-7.421h11.327zm22.237-36.657 14.125 39.86 14.046-39.86h14.875v54.97h-11.359v-15.032l1.125-25.938-14.828 40.97h-7.781l-14.797-40.923 1.125 25.89v15.032H404.33V310.47h14.797zM253.354 458.238h-11.328l-22.047-36.172v36.172H208.65V403.27h11.328l22.093 36.235v-36.235h11.282v54.97zm7.473-20.797q0-6.094 2.343-10.844 2.344-4.765 6.735-7.359 4.406-2.61 10.218-2.61 8.282 0 13.5 5.063 5.235 5.063 5.844 13.735l.063 2.796q0 9.407-5.25 15.094-5.235 5.672-14.078 5.672-8.829 0-14.11-5.656-5.265-5.672-5.265-15.406v-.485zm10.921.781q0 5.813 2.188 8.891 2.187 3.078 6.266 3.078 3.968 0 6.187-3.031 2.234-3.047 2.234-9.719 0-5.703-2.234-8.844-2.219-3.14-6.266-3.14-4 0-6.187 3.125-2.188 3.11-2.188 9.64zm47.568-30.875v10.032h6.984v8.015h-6.984v20.391q0 2.266.875 3.25.875.969 3.328.969 1.812 0 3.203-.266v8.281q-3.203.97-6.61.97-11.484 0-11.702-11.595v-22h-5.97v-8.015h5.97v-10.032h10.906zm66.12 28.422h-21.75v22.47h-11.329v-54.97h35.797v9.172h-24.469v14.188h21.75v9.14zm6.07 1.672q0-6.094 2.344-10.844 2.344-4.765 6.735-7.359 4.406-2.61 10.218-2.61 8.282 0 13.5 5.063 5.235 5.063 5.844 13.735l.063 2.796q0 9.407-5.25 15.094-5.235 5.672-14.079 5.672-8.828 0-14.109-5.656-5.266-5.672-5.266-15.406v-.485zm10.922.781q0 5.813 2.188 8.891 2.187 3.078 6.265 3.078 3.97 0 6.188-3.031 2.234-3.047 2.234-9.719 0-5.703-2.234-8.844-2.219-3.14-6.266-3.14-4 0-6.187 3.125-2.188 3.11-2.188 9.64zm58.974 15.86q-4.031 4.906-11.172 4.906-6.578 0-10.031-3.766-3.453-3.78-3.531-11.062v-26.781h10.921v26.39q0 6.391 5.813 6.391 5.547 0 7.625-3.86V417.38h10.953v40.86H461.7l-.297-4.157zm28.849-36.703.343 4.718q4.375-5.468 11.735-5.468 6.5 0 9.672 3.812 3.171 3.813 3.25 11.406v26.391h-10.922v-26.125q0-3.484-1.516-5.047-1.5-1.562-5.016-1.562-4.593 0-6.906 3.922v28.812h-10.906v-40.86h10.266zm31.558 20.125q0-9.547 4.281-15.203 4.297-5.672 11.735-5.672 5.968 0 9.859 4.453v-20.844h10.953v58h-9.86l-.53-4.344q-4.079 5.094-10.5 5.094-7.204 0-11.579-5.672-4.36-5.687-4.36-15.812zm10.922.797q0 5.734 2 8.796 2 3.063 5.812 3.063 5.063 0 7.14-4.266V429.77q-2.046-4.265-7.062-4.265-7.89 0-7.89 12.797z"/></g></svg>